<?xml version="1.0" encoding="UTF-8"?>
<svg id="Layer_1" xmlns="http://www.w3.org/2000/svg" viewBox="0 0 500 500">
  <defs>
    <style>
      .cls-1 {
        fill: #5245db;
      }
    </style>
  </defs>
  <g>
    <path class="cls-1" d="M151.83,197.9v-25.07c0-18.67-14.14-32.21-33.63-32.21h-26.54v88.31h26.54c19.8,0,33.63-12.76,33.63-31.03ZM136.83,197.31c0,4.12-1.34,17.56-18.63,17.56h-11.42v-60.08h11.42c12.87,0,18.63,9.36,18.63,18.63v23.88Z"/>
    <path class="cls-1" d="M214.8,215.46h-26.6v-20.99c0-8.55,3.87-17.68,14.73-17.68h13.06v-14.89h-13.18c-6.22,0-11.25,2.56-14.73,6.02v-6.02h-30.02v13.47h15.25v40.09h-16.91v13.47h58.4v-13.47Z"/>
    <path class="cls-1" d="M324.69,216.76c-7.55,0-11.64-2.9-12.51-8.86l-.34-2.38h-14.55l.28,3.03c1.25,13.51,11.46,21.91,26.65,21.91,15.94,0,26.66-8.91,26.66-22.16,0-16.55-13.9-19.16-24.05-21.06-8.93-1.67-12.84-2.84-12.84-6.96,0-3.79,3.97-6.33,9.88-6.33,4.37,0,9.75,1.27,10.62,7.31l.34,2.38h14.41l-.26-3.01c-1.02-11.94-11.1-20.27-24.52-20.27-14.72,0-25,8.19-25,19.92,0,15.5,13.28,18.16,22.98,20.11,9.59,1.93,13.8,3.3,13.8,8.39s-4.31,7.99-11.53,7.99Z"/>
    <rect class="cls-1" x="91.66" y="244.14" width="259.22" height="14.89"/>
    <path class="cls-1" d="M255.36,230.47c19.91,0,34.93-15.07,34.93-35.05s-14.97-35.05-34.82-35.05-34.93,15.07-34.93,35.05c0,9.76,3.52,18.68,9.91,25.1,6.38,6.42,15.22,9.96,24.9,9.96ZM244.31,178.51l29.28,16.9-29.28,16.9v-33.8Z"/>
  </g>
  <g>
    <path class="cls-1" d="M91.55,357.71v-83.87h29.35l14.5,73.09h2.16l14.5-73.09h29.35v83.87h-15.34v-72.25h-2.16l-14.38,72.25h-26.12l-14.38-72.25h-2.16v72.25h-15.34Z"/>
    <path class="cls-1" d="M217.35,359.38c-5.91,0-11.12-1.26-15.64-3.77-4.51-2.52-8.03-6.07-10.54-10.66-2.52-4.59-3.77-10-3.77-16.23v-1.44c0-6.23,1.24-11.64,3.71-16.24,2.48-4.59,5.95-8.15,10.42-10.66,4.47-2.52,9.66-3.77,15.58-3.77s10.9,1.3,15.22,3.89c4.31,2.6,7.67,6.19,10.06,10.78,2.4,4.59,3.59,9.93,3.59,16v5.15h-43.25c.16,4.07,1.68,7.39,4.55,9.94,2.88,2.56,6.39,3.83,10.54,3.83s7.35-.92,9.35-2.76c2-1.84,3.51-3.87,4.55-6.11l12.34,6.47c-1.12,2.08-2.74,4.33-4.85,6.77-2.12,2.44-4.93,4.51-8.45,6.23-3.52,1.72-7.99,2.58-13.42,2.58ZM202.85,321.16h27.8c-.32-3.43-1.7-6.19-4.13-8.27-2.44-2.08-5.61-3.12-9.53-3.12s-7.31,1.04-9.7,3.12c-2.4,2.08-3.88,4.83-4.43,8.27Z"/>
    <path class="cls-1" d="M278.34,359.38c-4.71,0-9.13-1.18-13.24-3.53-4.12-2.35-7.41-5.81-9.88-10.36-2.48-4.55-3.71-10.06-3.71-16.53v-1.92c0-6.47,1.24-11.98,3.71-16.53,2.47-4.55,5.75-8.01,9.82-10.36,4.07-2.36,8.51-3.53,13.3-3.53,3.6,0,6.61.42,9.05,1.26,2.44.84,4.41,1.9,5.93,3.18,1.52,1.28,2.67,2.64,3.47,4.07h2.16v-31.27h15.1v83.87h-14.86v-7.19h-2.16c-1.36,2.24-3.46,4.27-6.29,6.11-2.84,1.84-6.97,2.76-12.4,2.76ZM282.89,346.2c4.63,0,8.51-1.5,11.62-4.49s4.67-7.37,4.67-13.12v-1.2c0-5.75-1.54-10.12-4.61-13.12-3.08-3-6.97-4.49-11.68-4.49s-8.51,1.5-11.62,4.49c-3.12,3-4.67,7.37-4.67,13.12v1.2c0,5.75,1.56,10.12,4.67,13.12,3.12,3,6.99,4.49,11.62,4.49Z"/>
    <path class="cls-1" d="M330.93,291.33c-2.72,0-5.01-.88-6.89-2.64-1.88-1.76-2.82-4.07-2.82-6.95s.94-5.19,2.82-6.95c1.88-1.76,4.17-2.64,6.89-2.64s5.11.88,6.95,2.64c1.84,1.76,2.76,4.07,2.76,6.95s-.92,5.19-2.76,6.95c-1.84,1.76-4.15,2.64-6.95,2.64ZM323.39,357.71v-59.43h15.1v59.43h-15.1Z"/>
    <path class="cls-1" d="M368.67,359.38c-4.23,0-8.03-.74-11.38-2.22-3.36-1.48-6.01-3.63-7.97-6.47-1.96-2.83-2.94-6.29-2.94-10.36s.98-7.49,2.94-10.24c1.96-2.76,4.67-4.83,8.15-6.23,3.47-1.4,7.45-2.1,11.92-2.1h16.29v-3.35c0-2.8-.88-5.09-2.64-6.89-1.76-1.8-4.55-2.7-8.39-2.7s-6.55.86-8.39,2.58c-1.84,1.72-3.04,3.93-3.59,6.65l-13.9-4.67c.96-3.03,2.5-5.81,4.61-8.33,2.12-2.52,4.95-4.55,8.51-6.11,3.55-1.56,7.89-2.34,13-2.34,7.83,0,14.02,1.96,18.57,5.87,4.55,3.91,6.83,9.59,6.83,17.01v22.16c0,2.4,1.12,3.59,3.35,3.59h4.79v12.46h-10.06c-2.96,0-5.39-.72-7.31-2.16s-2.88-3.35-2.88-5.75v-.12h-2.28c-.32.96-1.04,2.22-2.16,3.77-1.12,1.56-2.88,2.94-5.27,4.13s-5.67,1.8-9.82,1.8ZM371.31,347.16c4.23,0,7.69-1.18,10.36-3.53,2.68-2.35,4.01-5.49,4.01-9.41v-1.2h-15.22c-2.8,0-4.99.6-6.59,1.8-1.6,1.2-2.4,2.88-2.4,5.03s.84,3.91,2.52,5.27c1.68,1.36,4.11,2.04,7.31,2.04Z"/>
  </g>
</svg>